<svg xmlns="http://www.w3.org/2000/svg" viewBox="0 0 5750 1120" width="5750" height="1120">
<rect x="0" y="0" width="5750" height="1120" fill="none" stroke="#000" stroke-width="2"/>
<path fill="#000" fill-rule="evenodd" d="M5710.00,741.00 L5710.00,725.67 L5648.33,664.00 L5579.00,733.33 L5648.33,802.67 L5710.00,741.00 Z M5579.00,1080.00 L5710.00,1080.00 L5710.00,1072.33 L5648.33,1010.67 L5579.00,1080.00 L5579.00,1080.00 Z M5707.27,202.93 L5710.00,202.93 L5710.00,200.20 L5707.27,202.93 Z M5707.27,223.73 L5710.00,226.47 L5710.00,223.73 L5707.27,223.73 Z M5707.27,549.60 L5710.00,549.60 L5710.00,546.87 L5707.27,549.60 Z M5707.27,570.40 L5710.00,573.13 L5710.00,570.40 L5707.27,570.40 Z M5707.27,896.27 L5710.00,896.27 L5710.00,893.53 L5707.27,896.27 Z M5707.27,917.07 L5710.00,919.80 L5710.00,917.07 L5707.27,917.07 Z M5710.00,47.67 L5710.00,40.00 L5579.00,40.00 L5579.00,40.00 L5648.33,109.33 L5710.00,47.67 Z M5710.00,394.33 L5710.00,379.00 L5648.33,317.33 L5579.00,386.67 L5648.33,456.00 L5710.00,394.33 Z M5563.25,994.91 L5563.25,943.22 L5589.40,917.07 L5533.93,917.07 L5524.03,926.97 L5524.03,955.69 L5495.31,955.69 L5485.40,965.60 L5485.40,1021.07 L5511.55,994.91 L5563.25,994.91 Z M5563.25,648.25 L5563.25,596.55 L5589.40,570.40 L5533.93,570.40 L5524.03,580.31 L5524.03,609.03 L5495.31,609.03 L5485.40,618.93 L5485.40,674.40 L5511.55,648.25 L5563.25,648.25 Z M5563.25,301.58 L5563.25,249.89 L5589.40,223.73 L5533.93,223.73 L5524.03,233.64 L5524.03,262.36 L5495.31,262.36 L5485.40,272.27 L5485.40,327.73 L5511.55,301.58 L5563.25,301.58 Z M5563.25,125.09 L5511.55,125.09 L5485.40,98.93 L5485.40,154.40 L5495.31,164.31 L5524.03,164.31 L5524.03,193.03 L5533.93,202.93 L5589.40,202.93 L5563.25,176.78 L5563.25,125.09 Z M5563.25,818.42 L5511.55,818.42 L5485.40,792.27 L5485.40,847.73 L5495.31,857.64 L5524.03,857.64 L5524.03,886.36 L5533.93,896.27 L5589.40,896.27 L5563.25,870.11 L5563.25,818.42 Z M5563.25,471.75 L5511.55,471.75 L5485.40,445.60 L5485.40,501.07 L5495.31,510.97 L5524.03,510.97 L5524.03,539.69 L5533.93,549.60 L5589.40,549.60 L5563.25,523.45 L5563.25,471.75 Z M5464.60,674.40 L5464.60,618.93 L5454.69,609.03 L5425.97,609.03 L5425.97,580.31 L5416.07,570.40 L5360.60,570.40 L5386.75,596.55 L5386.75,648.25 L5438.45,648.25 L5464.60,674.40 Z M5386.75,125.09 L5386.75,176.78 L5360.60,202.93 L5416.07,202.93 L5425.97,193.03 L5425.97,164.31 L5454.69,164.31 L5464.60,154.40 L5464.60,98.93 L5438.45,125.09 L5386.75,125.09 Z M5386.75,301.58 L5438.45,301.58 L5464.60,327.73 L5464.60,272.27 L5454.69,262.36 L5425.97,262.36 L5425.97,233.64 L5416.07,223.73 L5360.60,223.73 L5386.75,249.89 L5386.75,301.58 Z M5386.75,471.75 L5386.75,523.45 L5360.60,549.60 L5416.07,549.60 L5425.97,539.69 L5425.97,510.97 L5454.69,510.97 L5464.60,501.07 L5464.60,445.60 L5438.45,471.75 L5386.75,471.75 Z M5386.75,818.42 L5386.75,870.11 L5360.60,896.27 L5416.07,896.27 L5425.97,886.36 L5425.97,857.64 L5454.69,857.64 L5464.60,847.73 L5464.60,792.27 L5438.45,818.42 L5386.75,818.42 Z M5464.60,1021.07 L5464.60,965.60 L5454.69,955.69 L5425.97,955.69 L5425.97,926.97 L5416.07,917.07 L5360.60,917.07 L5386.75,943.22 L5386.75,994.91 L5438.45,994.91 L5464.60,1021.07 Z M5371.00,1080.00 L5301.67,1010.67 L5232.33,1080.00 L5232.33,1080.00 L5371.00,1080.00 L5371.00,1080.00 Z M5371.00,733.33 L5301.67,664.00 L5232.33,733.33 L5301.67,802.67 L5371.00,733.33 Z M5371.00,386.67 L5301.67,317.33 L5232.33,386.67 L5301.67,456.00 L5371.00,386.67 Z M5371.00,40.00 L5371.00,40.00 L5232.33,40.00 L5232.33,40.00 L5301.67,109.33 L5371.00,40.00 Z M5216.58,994.91 L5216.58,943.22 L5242.73,917.07 L5187.27,917.07 L5177.36,926.97 L5177.36,955.69 L5148.64,955.69 L5138.73,965.60 L5138.73,1021.07 L5164.89,994.91 L5216.58,994.91 Z M5216.58,648.25 L5216.58,596.55 L5242.73,570.40 L5187.27,570.40 L5177.36,580.31 L5177.36,609.03 L5148.64,609.03 L5138.73,618.93 L5138.73,674.40 L5164.89,648.25 L5216.58,648.25 Z M5216.58,301.58 L5216.58,249.89 L5242.73,223.73 L5187.27,223.73 L5177.36,233.64 L5177.36,262.36 L5148.64,262.36 L5138.73,272.27 L5138.73,327.73 L5164.89,301.58 L5216.58,301.58 Z M5216.58,125.09 L5164.89,125.09 L5138.73,98.93 L5138.73,154.40 L5148.64,164.31 L5177.36,164.31 L5177.36,193.03 L5187.27,202.93 L5242.73,202.93 L5216.58,176.78 L5216.58,125.09 Z M5216.58,818.42 L5164.89,818.42 L5138.73,792.27 L5138.73,847.73 L5148.64,857.64 L5177.36,857.64 L5177.36,886.36 L5187.27,896.27 L5242.73,896.27 L5216.58,870.11 L5216.58,818.42 Z M5216.58,471.75 L5164.89,471.75 L5138.73,445.60 L5138.73,501.07 L5148.64,510.97 L5177.36,510.97 L5177.36,539.69 L5187.27,549.60 L5242.73,549.60 L5216.58,523.45 L5216.58,471.75 Z M5117.93,1021.07 L5117.93,965.60 L5108.03,955.69 L5079.31,955.69 L5079.31,926.97 L5069.40,917.07 L5013.93,917.07 L5040.09,943.22 L5040.09,994.91 L5091.78,994.91 L5117.93,1021.07 Z M5040.09,301.58 L5091.78,301.58 L5117.93,327.73 L5117.93,272.27 L5108.03,262.36 L5079.31,262.36 L5079.31,233.64 L5069.40,223.73 L5013.93,223.73 L5040.09,249.89 L5040.09,301.58 Z M5040.09,471.75 L5040.09,523.45 L5013.93,549.60 L5069.40,549.60 L5079.31,539.69 L5079.31,510.97 L5108.03,510.97 L5117.93,501.07 L5117.93,445.60 L5091.78,471.75 L5040.09,471.75 Z M5040.09,818.42 L5040.09,870.11 L5013.93,896.27 L5069.40,896.27 L5079.31,886.36 L5079.31,857.64 L5108.03,857.64 L5117.93,847.73 L5117.93,792.27 L5091.78,818.42 L5040.09,818.42 Z M5117.93,674.40 L5117.93,618.93 L5108.03,609.03 L5079.31,609.03 L5079.31,580.31 L5069.40,570.40 L5013.93,570.40 L5040.09,596.55 L5040.09,648.25 L5091.78,648.25 L5117.93,674.40 Z M5069.40,202.93 L5079.31,193.03 L5079.31,164.31 L5108.03,164.31 L5117.93,154.40 L5117.93,98.93 L5091.78,125.09 L5040.09,125.09 L5040.09,176.78 L5013.93,202.93 L5069.40,202.93 Z M5024.33,1080.00 L4955.00,1010.67 L4885.67,1080.00 L4885.67,1080.00 L5024.33,1080.00 L5024.33,1080.00 Z M5024.33,733.33 L4955.00,664.00 L4885.67,733.33 L4955.00,802.67 L5024.33,733.33 Z M5024.33,40.00 L5024.33,40.00 L4885.67,40.00 L4885.67,40.00 L4955.00,109.33 L5024.33,40.00 Z M4955.00,456.00 L5024.33,386.67 L4955.00,317.33 L4885.67,386.67 L4955.00,456.00 Z M4869.91,648.25 L4869.91,596.55 L4896.07,570.40 L4840.60,570.40 L4830.69,580.31 L4830.69,609.03 L4801.97,609.03 L4792.07,618.93 L4792.07,674.40 L4818.22,648.25 L4869.91,648.25 Z M4869.91,125.09 L4818.22,125.09 L4792.07,98.93 L4792.07,154.40 L4801.97,164.31 L4830.69,164.31 L4830.69,193.03 L4840.60,202.93 L4896.07,202.93 L4869.91,176.78 L4869.91,125.09 Z M4869.91,994.91 L4869.91,943.22 L4896.07,917.07 L4840.60,917.07 L4830.69,926.97 L4830.69,955.69 L4801.97,955.69 L4792.07,965.60 L4792.07,1021.07 L4818.22,994.91 L4869.91,994.91 Z M4869.91,301.58 L4869.91,249.89 L4896.07,223.73 L4840.60,223.73 L4830.69,233.64 L4830.69,262.36 L4801.97,262.36 L4792.07,272.27 L4792.07,327.73 L4818.22,301.58 L4869.91,301.58 Z M4869.91,818.42 L4818.22,818.42 L4792.07,792.27 L4792.07,847.73 L4801.97,857.64 L4830.69,857.64 L4830.69,886.36 L4840.60,896.27 L4896.07,896.27 L4869.91,870.11 L4869.91,818.42 Z M4869.91,471.75 L4818.22,471.75 L4792.07,445.60 L4792.07,501.07 L4801.97,510.97 L4830.69,510.97 L4830.69,539.69 L4840.60,549.60 L4896.07,549.60 L4869.91,523.45 L4869.91,471.75 Z M4693.42,818.42 L4693.42,870.11 L4667.27,896.27 L4722.73,896.27 L4732.64,886.36 L4732.64,857.64 L4761.36,857.64 L4771.27,847.73 L4771.27,792.27 L4745.11,818.42 L4693.42,818.42 Z M4693.42,125.09 L4693.42,176.78 L4667.27,202.93 L4722.73,202.93 L4732.64,193.03 L4732.64,164.31 L4761.36,164.31 L4771.27,154.40 L4771.27,98.93 L4745.11,125.09 L4693.42,125.09 Z M4693.42,301.58 L4745.11,301.58 L4771.27,327.73 L4771.27,272.27 L4761.36,262.36 L4732.64,262.36 L4732.64,233.64 L4722.73,223.73 L4667.27,223.73 L4693.42,249.89 L4693.42,301.58 Z M4693.42,471.75 L4693.42,523.45 L4667.27,549.60 L4722.73,549.60 L4732.64,539.69 L4732.64,510.97 L4761.36,510.97 L4771.27,501.07 L4771.27,445.60 L4745.11,471.75 L4693.42,471.75 Z M4771.27,674.40 L4771.27,618.93 L4761.36,609.03 L4732.64,609.03 L4732.64,580.31 L4722.73,570.40 L4667.27,570.40 L4693.42,596.55 L4693.42,648.25 L4745.11,648.25 L4771.27,674.40 Z M4771.27,1021.07 L4771.27,965.60 L4761.36,955.69 L4732.64,955.69 L4732.64,926.97 L4722.73,917.07 L4667.27,917.07 L4693.42,943.22 L4693.42,994.91 L4745.11,994.91 L4771.27,1021.07 Z M4677.67,1080.00 L4608.33,1010.67 L4539.00,1080.00 L4539.00,1080.00 L4677.67,1080.00 L4677.67,1080.00 Z M4677.67,386.67 L4608.33,317.33 L4539.00,386.67 L4608.33,456.00 L4677.67,386.67 Z M4677.67,40.00 L4677.67,40.00 L4539.00,40.00 L4539.00,40.00 L4608.33,109.33 L4677.67,40.00 Z M4608.33,802.67 L4677.67,733.33 L4608.33,664.00 L4539.00,733.33 L4608.33,802.67 Z M4523.25,994.91 L4523.25,943.22 L4549.40,917.07 L4493.93,917.07 L4484.03,926.97 L4484.03,955.69 L4455.31,955.69 L4445.40,965.60 L4445.40,1021.07 L4471.55,994.91 L4523.25,994.91 Z M4523.25,125.09 L4471.55,125.09 L4445.40,98.93 L4445.40,154.40 L4455.31,164.31 L4484.03,164.31 L4484.03,193.03 L4493.93,202.93 L4549.40,202.93 L4523.25,176.78 L4523.25,125.09 Z M4523.25,818.42 L4471.55,818.42 L4445.40,792.27 L4445.40,847.73 L4455.31,857.64 L4484.03,857.64 L4484.03,886.36 L4493.93,896.27 L4549.40,896.27 L4523.25,870.11 L4523.25,818.42 Z M4523.25,301.58 L4523.25,249.89 L4549.40,223.73 L4493.93,223.73 L4484.03,233.64 L4484.03,262.36 L4455.31,262.36 L4445.40,272.27 L4445.40,327.73 L4471.55,301.58 L4523.25,301.58 Z M4523.25,648.25 L4523.25,596.55 L4549.40,570.40 L4493.93,570.40 L4484.03,580.31 L4484.03,609.03 L4455.31,609.03 L4445.40,618.93 L4445.40,674.40 L4471.55,648.25 L4523.25,648.25 Z M4523.25,471.75 L4471.55,471.75 L4445.40,445.60 L4445.40,501.07 L4455.31,510.97 L4484.03,510.97 L4484.03,539.69 L4493.93,549.60 L4549.40,549.60 L4523.25,523.45 L4523.25,471.75 Z M4346.75,471.75 L4346.75,523.45 L4320.60,549.60 L4376.07,549.60 L4385.97,539.69 L4385.97,510.97 L4414.69,510.97 L4424.60,501.07 L4424.60,445.60 L4398.45,471.75 L4346.75,471.75 Z M4346.75,125.09 L4346.75,176.78 L4320.60,202.93 L4376.07,202.93 L4385.97,193.03 L4385.97,164.31 L4414.69,164.31 L4424.60,154.40 L4424.60,98.93 L4398.45,125.09 L4346.75,125.09 Z M4346.75,301.58 L4398.45,301.58 L4424.60,327.73 L4424.60,272.27 L4414.69,262.36 L4385.97,262.36 L4385.97,233.64 L4376.07,223.73 L4320.60,223.73 L4346.75,249.89 L4346.75,301.58 Z M4346.75,818.42 L4346.75,870.11 L4320.60,896.27 L4376.07,896.27 L4385.97,886.36 L4385.97,857.64 L4414.69,857.64 L4424.60,847.73 L4424.60,792.27 L4398.45,818.42 L4346.75,818.42 Z M4424.60,674.40 L4424.60,618.93 L4414.69,609.03 L4385.97,609.03 L4385.97,580.31 L4376.07,570.40 L4320.60,570.40 L4346.75,596.55 L4346.75,648.25 L4398.45,648.25 L4424.60,674.40 Z M4424.60,1021.07 L4424.60,965.60 L4414.69,955.69 L4385.97,955.69 L4385.97,926.97 L4376.07,917.07 L4320.60,917.07 L4346.75,943.22 L4346.75,994.91 L4398.45,994.91 L4424.60,1021.07 Z M4331.00,1080.00 L4261.67,1010.67 L4192.33,1080.00 L4192.33,1080.00 L4331.00,1080.00 L4331.00,1080.00 Z M4331.00,733.33 L4261.67,664.00 L4192.33,733.33 L4261.67,802.67 L4331.00,733.33 Z M4331.00,386.67 L4261.67,317.33 L4192.33,386.67 L4261.67,456.00 L4331.00,386.67 Z M4331.00,40.00 L4331.00,40.00 L4192.33,40.00 L4192.33,40.00 L4261.67,109.33 L4331.00,40.00 Z M4176.58,125.09 L4124.89,125.09 L4098.73,98.93 L4098.73,154.40 L4108.64,164.31 L4137.36,164.31 L4137.36,193.03 L4147.27,202.93 L4202.73,202.93 L4176.58,176.78 L4176.58,125.09 Z M4176.58,994.91 L4176.58,943.22 L4202.73,917.07 L4147.27,917.07 L4137.36,926.97 L4137.36,955.69 L4108.64,955.69 L4098.73,965.60 L4098.73,1021.07 L4124.89,994.91 L4176.58,994.91 Z M4176.58,301.58 L4176.58,249.89 L4202.73,223.73 L4147.27,223.73 L4137.36,233.64 L4137.36,262.36 L4108.64,262.36 L4098.73,272.27 L4098.73,327.73 L4124.89,301.58 L4176.58,301.58 Z M4176.58,648.25 L4176.58,596.55 L4202.73,570.40 L4147.27,570.40 L4137.36,580.31 L4137.36,609.03 L4108.64,609.03 L4098.73,618.93 L4098.73,674.40 L4124.89,648.25 L4176.58,648.25 Z M4176.58,818.42 L4124.89,818.42 L4098.73,792.27 L4098.73,847.73 L4108.64,857.64 L4137.36,857.64 L4137.36,886.36 L4147.27,896.27 L4202.73,896.27 L4176.58,870.11 L4176.58,818.42 Z M4176.58,471.75 L4124.89,471.75 L4098.73,445.60 L4098.73,501.07 L4108.64,510.97 L4137.36,510.97 L4137.36,539.69 L4147.27,549.60 L4202.73,549.60 L4176.58,523.45 L4176.58,471.75 Z M4000.09,818.42 L4000.09,870.11 L3973.93,896.27 L4029.40,896.27 L4039.31,886.36 L4039.31,857.64 L4068.03,857.64 L4077.93,847.73 L4077.93,792.27 L4051.78,818.42 L4000.09,818.42 Z M4000.09,125.09 L4000.09,176.78 L3973.93,202.93 L4029.40,202.93 L4039.31,193.03 L4039.31,164.31 L4068.03,164.31 L4077.93,154.40 L4077.93,98.93 L4051.78,125.09 L4000.09,125.09 Z M4000.09,301.58 L4051.78,301.58 L4077.93,327.73 L4077.93,272.27 L4068.03,262.36 L4039.31,262.36 L4039.31,233.64 L4029.40,223.73 L3973.93,223.73 L4000.09,249.89 L4000.09,301.58 Z M4000.09,471.75 L4000.09,523.45 L3973.93,549.60 L4029.40,549.60 L4039.31,539.69 L4039.31,510.97 L4068.03,510.97 L4077.93,501.07 L4077.93,445.60 L4051.78,471.75 L4000.09,471.75 Z M4000.09,994.91 L4051.78,994.91 L4077.93,1021.07 L4077.93,965.60 L4068.03,955.69 L4039.31,955.69 L4039.31,926.97 L4029.40,917.07 L3973.93,917.07 L4000.09,943.22 L4000.09,994.91 Z M4077.93,674.40 L4077.93,618.93 L4068.03,609.03 L4039.31,609.03 L4039.31,580.31 L4029.40,570.40 L3973.93,570.40 L4000.09,596.55 L4000.09,648.25 L4051.78,648.25 L4077.93,674.40 Z M3984.33,1080.00 L3915.00,1010.67 L3845.67,1080.00 L3845.67,1080.00 L3984.33,1080.00 L3984.33,1080.00 Z M3984.33,733.33 L3915.00,664.00 L3845.67,733.33 L3915.00,802.67 L3984.33,733.33 Z M3984.33,386.67 L3915.00,317.33 L3845.67,386.67 L3915.00,456.00 L3984.33,386.67 Z M3915.00,109.33 L3984.33,40.00 L3984.33,40.00 L3845.67,40.00 L3845.67,40.00 L3915.00,109.33 Z M3829.91,125.09 L3778.22,125.09 L3752.07,98.93 L3752.07,154.40 L3761.97,164.31 L3790.69,164.31 L3790.69,193.03 L3800.60,202.93 L3856.07,202.93 L3829.91,176.78 L3829.91,125.09 Z M3829.91,994.91 L3829.91,943.22 L3856.07,917.07 L3800.60,917.07 L3790.69,926.97 L3790.69,955.69 L3761.97,955.69 L3752.07,965.60 L3752.07,1021.07 L3778.22,994.91 L3829.91,994.91 Z M3829.91,471.75 L3778.22,471.75 L3752.07,445.60 L3752.07,501.07 L3761.97,510.97 L3790.69,510.97 L3790.69,539.69 L3800.60,549.60 L3856.07,549.60 L3829.91,523.45 L3829.91,471.75 Z M3829.91,301.58 L3829.91,249.89 L3856.07,223.73 L3800.60,223.73 L3790.69,233.64 L3790.69,262.36 L3761.97,262.36 L3752.07,272.27 L3752.07,327.73 L3778.22,301.58 L3829.91,301.58 Z M3829.91,818.42 L3778.22,818.42 L3752.07,792.27 L3752.07,847.73 L3761.97,857.64 L3790.69,857.64 L3790.69,886.36 L3800.60,896.27 L3856.07,896.27 L3829.91,870.11 L3829.91,818.42 Z M3829.91,648.25 L3829.91,596.55 L3856.07,570.40 L3800.60,570.40 L3790.69,580.31 L3790.69,609.03 L3761.97,609.03 L3752.07,618.93 L3752.07,674.40 L3778.22,648.25 L3829.91,648.25 Z M3653.42,301.58 L3705.11,301.58 L3731.27,327.73 L3731.27,272.27 L3721.36,262.36 L3692.64,262.36 L3692.64,233.64 L3682.73,223.73 L3627.27,223.73 L3653.42,249.89 L3653.42,301.58 Z M3653.42,125.09 L3653.42,176.78 L3627.27,202.93 L3682.73,202.93 L3692.64,193.03 L3692.64,164.31 L3721.36,164.31 L3731.27,154.40 L3731.27,98.93 L3705.11,125.09 L3653.42,125.09 Z M3653.42,471.75 L3653.42,523.45 L3627.27,549.60 L3682.73,549.60 L3692.64,539.69 L3692.64,510.97 L3721.36,510.97 L3731.27,501.07 L3731.27,445.60 L3705.11,471.75 L3653.42,471.75 Z M3653.42,818.42 L3653.42,870.11 L3627.27,896.27 L3682.73,896.27 L3692.64,886.36 L3692.64,857.64 L3721.36,857.64 L3731.27,847.73 L3731.27,792.27 L3705.11,818.42 L3653.42,818.42 Z M3731.27,1021.07 L3731.27,965.60 L3721.36,955.69 L3692.64,955.69 L3692.64,926.97 L3682.73,917.07 L3627.27,917.07 L3653.42,943.22 L3653.42,994.91 L3705.11,994.91 L3731.27,1021.07 Z M3653.42,648.25 L3705.11,648.25 L3731.27,674.40 L3731.27,618.93 L3721.36,609.03 L3692.64,609.03 L3692.64,580.31 L3682.73,570.40 L3627.27,570.40 L3653.42,596.55 L3653.42,648.25 Z M3637.67,733.33 L3568.33,664.00 L3499.00,733.33 L3568.33,802.67 L3637.67,733.33 Z M3637.67,386.67 L3568.33,317.33 L3499.00,386.67 L3568.33,456.00 L3637.67,386.67 Z M3637.67,40.00 L3637.67,40.00 L3499.00,40.00 L3499.00,40.00 L3568.33,109.33 L3637.67,40.00 Z M3499.00,1080.00 L3637.67,1080.00 L3637.67,1080.00 L3568.33,1010.67 L3499.00,1080.00 L3499.00,1080.00 Z M3483.25,301.58 L3483.25,249.89 L3509.40,223.73 L3453.93,223.73 L3444.03,233.64 L3444.03,262.36 L3415.31,262.36 L3405.40,272.27 L3405.40,327.73 L3431.55,301.58 L3483.25,301.58 Z M3483.25,994.91 L3483.25,943.22 L3509.40,917.07 L3453.93,917.07 L3444.03,926.97 L3444.03,955.69 L3415.31,955.69 L3405.40,965.60 L3405.40,1021.07 L3431.55,994.91 L3483.25,994.91 Z M3483.25,818.42 L3431.55,818.42 L3405.40,792.27 L3405.40,847.73 L3415.31,857.64 L3444.03,857.64 L3444.03,886.36 L3453.93,896.27 L3509.40,896.27 L3483.25,870.11 L3483.25,818.42 Z M3483.25,648.25 L3483.25,596.55 L3509.40,570.40 L3453.93,570.40 L3444.03,580.31 L3444.03,609.03 L3415.31,609.03 L3405.40,618.93 L3405.40,674.40 L3431.55,648.25 L3483.25,648.25 Z M3483.25,471.75 L3431.55,471.75 L3405.40,445.60 L3405.40,501.07 L3415.31,510.97 L3444.03,510.97 L3444.03,539.69 L3453.93,549.60 L3509.40,549.60 L3483.25,523.45 L3483.25,471.75 Z M3483.25,125.09 L3431.55,125.09 L3405.40,98.93 L3405.40,154.40 L3415.31,164.31 L3444.03,164.31 L3444.03,193.03 L3453.93,202.93 L3509.40,202.93 L3483.25,176.78 L3483.25,125.09 Z M3306.75,471.75 L3306.75,523.45 L3280.60,549.60 L3336.07,549.60 L3345.97,539.69 L3345.97,510.97 L3374.69,510.97 L3384.60,501.07 L3384.60,445.60 L3358.45,471.75 L3306.75,471.75 Z M3306.75,125.09 L3306.75,176.78 L3280.60,202.93 L3336.07,202.93 L3345.97,193.03 L3345.97,164.31 L3374.69,164.31 L3384.60,154.40 L3384.60,98.93 L3358.45,125.09 L3306.75,125.09 Z M3306.75,818.42 L3306.75,870.11 L3280.60,896.27 L3336.07,896.27 L3345.97,886.36 L3345.97,857.64 L3374.69,857.64 L3384.60,847.73 L3384.60,792.27 L3358.45,818.42 L3306.75,818.42 Z M3384.60,674.40 L3384.60,618.93 L3374.69,609.03 L3345.97,609.03 L3345.97,580.31 L3336.07,570.40 L3280.60,570.40 L3306.75,596.55 L3306.75,648.25 L3358.45,648.25 L3384.60,674.40 Z M3384.60,1021.07 L3384.60,965.60 L3374.69,955.69 L3345.97,955.69 L3345.97,926.97 L3336.07,917.07 L3280.60,917.07 L3306.75,943.22 L3306.75,994.91 L3358.45,994.91 L3384.60,1021.07 Z M3384.60,327.73 L3384.60,272.27 L3374.69,262.36 L3345.97,262.36 L3345.97,233.64 L3336.07,223.73 L3280.60,223.73 L3306.75,249.89 L3306.75,301.58 L3358.45,301.58 L3384.60,327.73 Z M3291.00,1080.00 L3221.67,1010.67 L3152.33,1080.00 L3152.33,1080.00 L3291.00,1080.00 L3291.00,1080.00 Z M3291.00,733.33 L3221.67,664.00 L3152.33,733.33 L3221.67,802.67 L3291.00,733.33 Z M3291.00,386.67 L3221.67,317.33 L3152.33,386.67 L3221.67,456.00 L3291.00,386.67 Z M3291.00,40.00 L3291.00,40.00 L3152.33,40.00 L3152.33,40.00 L3221.67,109.33 L3291.00,40.00 Z M3136.58,994.91 L3136.58,943.22 L3162.73,917.07 L3107.27,917.07 L3097.36,926.97 L3097.36,955.69 L3068.64,955.69 L3058.73,965.60 L3058.73,1021.07 L3084.89,994.91 L3136.58,994.91 Z M3136.58,648.25 L3136.58,596.55 L3162.73,570.40 L3107.27,570.40 L3097.36,580.31 L3097.36,609.03 L3068.64,609.03 L3058.73,618.93 L3058.73,674.40 L3084.89,648.25 L3136.58,648.25 Z M3136.58,301.58 L3136.58,249.89 L3162.73,223.73 L3107.27,223.73 L3097.36,233.64 L3097.36,262.36 L3068.64,262.36 L3058.73,272.27 L3058.73,327.73 L3084.89,301.58 L3136.58,301.58 Z M3136.58,471.75 L3084.89,471.75 L3058.73,445.60 L3058.73,501.07 L3068.64,510.97 L3097.36,510.97 L3097.36,539.69 L3107.27,549.60 L3162.73,549.60 L3136.58,523.45 L3136.58,471.75 Z M3136.58,818.42 L3084.89,818.42 L3058.73,792.27 L3058.73,847.73 L3068.64,857.64 L3097.36,857.64 L3097.36,886.36 L3107.27,896.27 L3162.73,896.27 L3136.58,870.11 L3136.58,818.42 Z M3136.58,125.09 L3084.89,125.09 L3058.73,98.93 L3058.73,154.40 L3068.64,164.31 L3097.36,164.31 L3097.36,193.03 L3107.27,202.93 L3162.73,202.93 L3136.58,176.78 L3136.58,125.09 Z M3037.93,1021.07 L3037.93,965.60 L3028.03,955.69 L2999.31,955.69 L2999.31,926.97 L2989.40,917.07 L2933.93,917.07 L2960.09,943.22 L2960.09,994.91 L3011.78,994.91 L3037.93,1021.07 Z M2960.09,818.42 L2960.09,870.11 L2933.93,896.27 L2989.40,896.27 L2999.31,886.36 L2999.31,857.64 L3028.03,857.64 L3037.93,847.73 L3037.93,792.27 L3011.78,818.42 L2960.09,818.42 Z M2960.09,648.25 L3011.78,648.25 L3037.93,674.40 L3037.93,618.93 L3028.03,609.03 L2999.31,609.03 L2999.31,580.31 L2989.40,570.40 L2933.93,570.40 L2960.09,596.55 L2960.09,648.25 Z M2960.09,471.75 L2960.09,523.45 L2933.93,549.60 L2989.40,549.60 L2999.31,539.69 L2999.31,510.97 L3028.03,510.97 L3037.93,501.07 L3037.93,445.60 L3011.78,471.75 L2960.09,471.75 Z M2960.09,301.58 L3011.78,301.58 L3037.93,327.73 L3037.93,272.27 L3028.03,262.36 L2999.31,262.36 L2999.31,233.64 L2989.40,223.73 L2933.93,223.73 L2960.09,249.89 L2960.09,301.58 Z M2960.09,125.09 L2960.09,176.78 L2933.93,202.93 L2989.40,202.93 L2999.31,193.03 L2999.31,164.31 L3028.03,164.31 L3037.93,154.40 L3037.93,98.93 L3011.78,125.09 L2960.09,125.09 Z M2944.33,1080.00 L2875.00,1010.67 L2805.67,1080.00 L2805.67,1080.00 L2944.33,1080.00 L2944.33,1080.00 Z M2944.33,386.67 L2875.00,317.33 L2805.67,386.67 L2875.00,456.00 L2944.33,386.67 Z M2875.00,802.67 L2944.33,733.33 L2875.00,664.00 L2805.67,733.33 L2875.00,802.67 Z M2875.00,109.33 L2944.33,40.00 L2944.33,40.00 L2805.67,40.00 L2805.67,40.00 L2875.00,109.33 Z M2789.91,301.58 L2789.91,249.89 L2816.07,223.73 L2760.60,223.73 L2750.69,233.64 L2750.69,262.36 L2721.97,262.36 L2712.07,272.27 L2712.07,327.73 L2738.22,301.58 L2789.91,301.58 Z M2789.91,125.09 L2738.22,125.09 L2712.07,98.93 L2712.07,154.40 L2721.97,164.31 L2750.69,164.31 L2750.69,193.03 L2760.60,202.93 L2816.07,202.93 L2789.91,176.78 L2789.91,125.09 Z M2789.91,471.75 L2738.22,471.75 L2712.07,445.60 L2712.07,501.07 L2721.97,510.97 L2750.69,510.97 L2750.69,539.69 L2760.60,549.60 L2816.07,549.60 L2789.91,523.45 L2789.91,471.75 Z M2789.91,648.25 L2789.91,596.55 L2816.07,570.40 L2760.60,570.40 L2750.69,580.31 L2750.69,609.03 L2721.97,609.03 L2712.07,618.93 L2712.07,674.40 L2738.22,648.25 L2789.91,648.25 Z M2789.91,818.42 L2738.22,818.42 L2712.07,792.27 L2712.07,847.73 L2721.97,857.64 L2750.69,857.64 L2750.69,886.36 L2760.60,896.27 L2816.07,896.27 L2789.91,870.11 L2789.91,818.42 Z M2789.91,994.91 L2789.91,943.22 L2816.07,917.07 L2760.60,917.07 L2750.69,926.97 L2750.69,955.69 L2721.97,955.69 L2712.07,965.60 L2712.07,1021.07 L2738.22,994.91 L2789.91,994.91 Z M2691.27,674.40 L2691.27,618.93 L2681.36,609.03 L2652.64,609.03 L2652.64,580.31 L2642.73,570.40 L2587.27,570.40 L2613.42,596.55 L2613.42,648.25 L2665.11,648.25 L2691.27,674.40 Z M2691.27,327.73 L2691.27,272.27 L2681.36,262.36 L2652.64,262.36 L2652.64,233.64 L2642.73,223.73 L2587.27,223.73 L2613.42,249.89 L2613.42,301.58 L2665.11,301.58 L2691.27,327.73 Z M2613.42,994.91 L2665.11,994.91 L2691.27,1021.07 L2691.27,965.60 L2681.36,955.69 L2652.64,955.69 L2652.64,926.97 L2642.73,917.07 L2587.27,917.07 L2613.42,943.22 L2613.42,994.91 Z M2613.42,818.42 L2613.42,870.11 L2587.27,896.27 L2642.73,896.27 L2652.64,886.36 L2652.64,857.64 L2681.36,857.64 L2691.27,847.73 L2691.27,792.27 L2665.11,818.42 L2613.42,818.42 Z M2613.42,471.75 L2613.42,523.45 L2587.27,549.60 L2642.73,549.60 L2652.64,539.69 L2652.64,510.97 L2681.36,510.97 L2691.27,501.07 L2691.27,445.60 L2665.11,471.75 L2613.42,471.75 Z M2613.42,125.09 L2613.42,176.78 L2587.27,202.93 L2642.73,202.93 L2652.64,193.03 L2652.64,164.31 L2681.36,164.31 L2691.27,154.40 L2691.27,98.93 L2665.11,125.09 L2613.42,125.09 Z M2597.67,733.33 L2528.33,664.00 L2459.00,733.33 L2528.33,802.67 L2597.67,733.33 Z M2597.67,40.00 L2597.67,40.00 L2459.00,40.00 L2459.00,40.00 L2528.33,109.33 L2597.67,40.00 Z M2597.67,386.67 L2528.33,317.33 L2459.00,386.67 L2528.33,456.00 L2597.67,386.67 Z M2597.67,1080.00 L2528.33,1010.67 L2459.00,1080.00 L2459.00,1080.00 L2597.67,1080.00 L2597.67,1080.00 Z M2443.25,994.91 L2443.25,943.22 L2469.40,917.07 L2413.93,917.07 L2404.03,926.97 L2404.03,955.69 L2375.31,955.69 L2365.40,965.60 L2365.40,1021.07 L2391.55,994.91 L2443.25,994.91 Z M2443.25,818.42 L2391.55,818.42 L2365.40,792.27 L2365.40,847.73 L2375.31,857.64 L2404.03,857.64 L2404.03,886.36 L2413.93,896.27 L2469.40,896.27 L2443.25,870.11 L2443.25,818.42 Z M2443.25,648.25 L2443.25,596.55 L2469.40,570.40 L2413.93,570.40 L2404.03,580.31 L2404.03,609.03 L2375.31,609.03 L2365.40,618.93 L2365.40,674.40 L2391.55,648.25 L2443.25,648.25 Z M2443.25,471.75 L2391.55,471.75 L2365.40,445.60 L2365.40,501.07 L2375.31,510.97 L2404.03,510.97 L2404.03,539.69 L2413.93,549.60 L2469.40,549.60 L2443.25,523.45 L2443.25,471.75 Z M2443.25,301.58 L2443.25,249.89 L2469.40,223.73 L2413.93,223.73 L2404.03,233.64 L2404.03,262.36 L2375.31,262.36 L2365.40,272.27 L2365.40,327.73 L2391.55,301.58 L2443.25,301.58 Z M2443.25,125.09 L2391.55,125.09 L2365.40,98.93 L2365.40,154.40 L2375.31,164.31 L2404.03,164.31 L2404.03,193.03 L2413.93,202.93 L2469.40,202.93 L2443.25,176.78 L2443.25,125.09 Z M2344.60,1021.07 L2344.60,965.60 L2334.69,955.69 L2305.97,955.69 L2305.97,926.97 L2296.07,917.07 L2240.60,917.07 L2266.75,943.22 L2266.75,994.91 L2318.45,994.91 L2344.60,1021.07 Z M2344.60,674.40 L2344.60,618.93 L2334.69,609.03 L2305.97,609.03 L2305.97,580.31 L2296.07,570.40 L2240.60,570.40 L2266.75,596.55 L2266.75,648.25 L2318.45,648.25 L2344.60,674.40 Z M2344.60,327.73 L2344.60,272.27 L2334.69,262.36 L2305.97,262.36 L2305.97,233.64 L2296.07,223.73 L2240.60,223.73 L2266.75,249.89 L2266.75,301.58 L2318.45,301.58 L2344.60,327.73 Z M2266.75,818.42 L2266.75,870.11 L2240.60,896.27 L2296.07,896.27 L2305.97,886.36 L2305.97,857.64 L2334.69,857.64 L2344.60,847.73 L2344.60,792.27 L2318.45,818.42 L2266.75,818.42 Z M2266.75,471.75 L2266.75,523.45 L2240.60,549.60 L2296.07,549.60 L2305.97,539.69 L2305.97,510.97 L2334.69,510.97 L2344.60,501.07 L2344.60,445.60 L2318.45,471.75 L2266.75,471.75 Z M2266.75,125.09 L2266.75,176.78 L2240.60,202.93 L2296.07,202.93 L2305.97,193.03 L2305.97,164.31 L2334.69,164.31 L2344.60,154.40 L2344.60,98.93 L2318.45,125.09 L2266.75,125.09 Z M2251.00,40.00 L2251.00,40.00 L2112.33,40.00 L2112.33,40.00 L2181.67,109.33 L2251.00,40.00 Z M2251.00,386.67 L2181.67,317.33 L2112.33,386.67 L2181.67,456.00 L2251.00,386.67 Z M2251.00,1080.00 L2181.67,1010.67 L2112.33,1080.00 L2112.33,1080.00 L2251.00,1080.00 L2251.00,1080.00 Z M2251.00,733.33 L2181.67,664.00 L2112.33,733.33 L2181.67,802.67 L2251.00,733.33 Z M2096.58,471.75 L2044.89,471.75 L2018.73,445.60 L2018.73,501.07 L2028.64,510.97 L2057.36,510.97 L2057.36,539.69 L2067.27,549.60 L2122.73,549.60 L2096.58,523.45 L2096.58,471.75 Z M2096.58,818.42 L2044.89,818.42 L2018.73,792.27 L2018.73,847.73 L2028.64,857.64 L2057.36,857.64 L2057.36,886.36 L2067.27,896.27 L2122.73,896.27 L2096.58,870.11 L2096.58,818.42 Z M2096.58,125.09 L2044.89,125.09 L2018.73,98.93 L2018.73,154.40 L2028.64,164.31 L2057.36,164.31 L2057.36,193.03 L2067.27,202.93 L2122.73,202.93 L2096.58,176.78 L2096.58,125.09 Z M2096.58,648.25 L2096.58,596.55 L2122.73,570.40 L2067.27,570.40 L2057.36,580.31 L2057.36,609.03 L2028.64,609.03 L2018.73,618.93 L2018.73,674.40 L2044.89,648.25 L2096.58,648.25 Z M2096.58,301.58 L2096.58,249.89 L2122.73,223.73 L2067.27,223.73 L2057.36,233.64 L2057.36,262.36 L2028.64,262.36 L2018.73,272.27 L2018.73,327.73 L2044.89,301.58 L2096.58,301.58 Z M2096.58,994.91 L2096.58,943.22 L2122.73,917.07 L2067.27,917.07 L2057.36,926.97 L2057.36,955.69 L2028.64,955.69 L2018.73,965.60 L2018.73,1021.07 L2044.89,994.91 L2096.58,994.91 Z M1997.93,674.40 L1997.93,618.93 L1988.03,609.03 L1959.31,609.03 L1959.31,580.31 L1949.40,570.40 L1893.93,570.40 L1920.09,596.55 L1920.09,648.25 L1971.78,648.25 L1997.93,674.40 Z M1949.40,896.27 L1959.31,886.36 L1959.31,857.64 L1988.03,857.64 L1997.93,847.73 L1997.93,792.27 L1971.78,818.42 L1920.09,818.42 L1920.09,870.11 L1893.93,896.27 L1949.40,896.27 Z M1920.09,994.91 L1971.78,994.91 L1997.93,1021.07 L1997.93,965.60 L1988.03,955.69 L1959.31,955.69 L1959.31,926.97 L1949.40,917.07 L1893.93,917.07 L1920.09,943.22 L1920.09,994.91 Z M1920.09,471.75 L1920.09,523.45 L1893.93,549.60 L1949.40,549.60 L1959.31,539.69 L1959.31,510.97 L1988.03,510.97 L1997.93,501.07 L1997.93,445.60 L1971.78,471.75 L1920.09,471.75 Z M1920.09,301.58 L1971.78,301.58 L1997.93,327.73 L1997.93,272.27 L1988.03,262.36 L1959.31,262.36 L1959.31,233.64 L1949.40,223.73 L1893.93,223.73 L1920.09,249.89 L1920.09,301.58 Z M1920.09,125.09 L1920.09,176.78 L1893.93,202.93 L1949.40,202.93 L1959.31,193.03 L1959.31,164.31 L1988.03,164.31 L1997.93,154.40 L1997.93,98.93 L1971.78,125.09 L1920.09,125.09 Z M1904.33,40.00 L1904.33,40.00 L1765.67,40.00 L1765.67,40.00 L1835.00,109.33 L1904.33,40.00 Z M1904.33,386.67 L1835.00,317.33 L1765.67,386.67 L1835.00,456.00 L1904.33,386.67 Z M1904.33,1080.00 L1835.00,1010.67 L1765.67,1080.00 L1765.67,1080.00 L1904.33,1080.00 L1904.33,1080.00 Z M1904.33,733.33 L1835.00,664.00 L1765.67,733.33 L1835.00,802.67 L1904.33,733.33 Z M1749.91,471.75 L1698.22,471.75 L1672.07,445.60 L1672.07,501.07 L1681.97,510.97 L1710.69,510.97 L1710.69,539.69 L1720.60,549.60 L1776.07,549.60 L1749.91,523.45 L1749.91,471.75 Z M1749.91,994.91 L1749.91,943.22 L1776.07,917.07 L1720.60,917.07 L1710.69,926.97 L1710.69,955.69 L1681.97,955.69 L1672.07,965.60 L1672.07,1021.07 L1698.22,994.91 L1749.91,994.91 Z M1749.91,818.42 L1698.22,818.42 L1672.07,792.27 L1672.07,847.73 L1681.97,857.64 L1710.69,857.64 L1710.69,886.36 L1720.60,896.27 L1776.07,896.27 L1749.91,870.11 L1749.91,818.42 Z M1749.91,301.58 L1749.91,249.89 L1776.07,223.73 L1720.60,223.73 L1710.69,233.64 L1710.69,262.36 L1681.97,262.36 L1672.07,272.27 L1672.07,327.73 L1698.22,301.58 L1749.91,301.58 Z M1749.91,125.09 L1698.22,125.09 L1672.07,98.93 L1672.07,154.40 L1681.97,164.31 L1710.69,164.31 L1710.69,193.03 L1720.60,202.93 L1776.07,202.93 L1749.91,176.78 L1749.91,125.09 Z M1749.91,648.25 L1749.91,596.55 L1776.07,570.40 L1720.60,570.40 L1710.69,580.31 L1710.69,609.03 L1681.97,609.03 L1672.07,618.93 L1672.07,674.40 L1698.22,648.25 L1749.91,648.25 Z M1651.27,674.40 L1651.27,618.93 L1641.36,609.03 L1612.64,609.03 L1612.64,580.31 L1602.73,570.40 L1547.27,570.40 L1573.42,596.55 L1573.42,648.25 L1625.11,648.25 L1651.27,674.40 Z M1573.42,125.09 L1573.42,176.78 L1547.27,202.93 L1602.73,202.93 L1612.64,193.03 L1612.64,164.31 L1641.36,164.31 L1651.27,154.40 L1651.27,98.93 L1625.11,125.09 L1573.42,125.09 Z M1573.42,471.75 L1573.42,523.45 L1547.27,549.60 L1602.73,549.60 L1612.64,539.69 L1612.64,510.97 L1641.36,510.97 L1651.27,501.07 L1651.27,445.60 L1625.11,471.75 L1573.42,471.75 Z M1573.42,818.42 L1573.42,870.11 L1547.27,896.27 L1602.73,896.27 L1612.64,886.36 L1612.64,857.64 L1641.36,857.64 L1651.27,847.73 L1651.27,792.27 L1625.11,818.42 L1573.42,818.42 Z M1651.27,327.73 L1651.27,272.27 L1641.36,262.36 L1612.64,262.36 L1612.64,233.64 L1602.73,223.73 L1547.27,223.73 L1573.42,249.89 L1573.42,301.58 L1625.11,301.58 L1651.27,327.73 Z M1651.27,1021.07 L1651.27,965.60 L1641.36,955.69 L1612.64,955.69 L1612.64,926.97 L1602.73,917.07 L1547.27,917.07 L1573.42,943.22 L1573.42,994.91 L1625.11,994.91 L1651.27,1021.07 Z M1557.67,1080.00 L1488.33,1010.67 L1419.00,1080.00 L1419.00,1080.00 L1557.67,1080.00 L1557.67,1080.00 Z M1557.67,733.33 L1488.33,664.00 L1419.00,733.33 L1488.33,802.67 L1557.67,733.33 Z M1557.67,40.00 L1557.67,40.00 L1419.00,40.00 L1419.00,40.00 L1488.33,109.33 L1557.67,40.00 Z M1488.33,456.00 L1557.67,386.67 L1488.33,317.33 L1419.00,386.67 L1488.33,456.00 Z M1403.25,125.09 L1351.55,125.09 L1325.40,98.93 L1325.40,154.40 L1335.31,164.31 L1364.03,164.31 L1364.03,193.03 L1373.93,202.93 L1429.40,202.93 L1403.25,176.78 L1403.25,125.09 Z M1403.25,818.42 L1351.55,818.42 L1325.40,792.27 L1325.40,847.73 L1335.31,857.64 L1364.03,857.64 L1364.03,886.36 L1373.93,896.27 L1429.40,896.27 L1403.25,870.11 L1403.25,818.42 Z M1403.25,471.75 L1351.55,471.75 L1325.40,445.60 L1325.40,501.07 L1335.31,510.97 L1364.03,510.97 L1364.03,539.69 L1373.93,549.60 L1429.40,549.60 L1403.25,523.45 L1403.25,471.75 Z M1403.25,648.25 L1403.25,596.55 L1429.40,570.40 L1373.93,570.40 L1364.03,580.31 L1364.03,609.03 L1335.31,609.03 L1325.40,618.93 L1325.40,674.40 L1351.55,648.25 L1403.25,648.25 Z M1403.25,301.58 L1403.25,249.89 L1429.40,223.73 L1373.93,223.73 L1364.03,233.64 L1364.03,262.36 L1335.31,262.36 L1325.40,272.27 L1325.40,327.73 L1351.55,301.58 L1403.25,301.58 Z M1403.25,994.91 L1403.25,943.22 L1429.40,917.07 L1373.93,917.07 L1364.03,926.97 L1364.03,955.69 L1335.31,955.69 L1325.40,965.60 L1325.40,1021.07 L1351.55,994.91 L1403.25,994.91 Z M1226.75,994.91 L1278.45,994.91 L1304.60,1021.07 L1304.60,965.60 L1294.69,955.69 L1265.97,955.69 L1265.97,926.97 L1256.07,917.07 L1200.60,917.07 L1226.75,943.22 L1226.75,994.91 Z M1226.75,818.42 L1226.75,870.11 L1200.60,896.27 L1256.07,896.27 L1265.97,886.36 L1265.97,857.64 L1294.69,857.64 L1304.60,847.73 L1304.60,792.27 L1278.45,818.42 L1226.75,818.42 Z M1226.75,648.25 L1278.45,648.25 L1304.60,674.40 L1304.60,618.93 L1294.69,609.03 L1265.97,609.03 L1265.97,580.31 L1256.07,570.40 L1200.60,570.40 L1226.75,596.55 L1226.75,648.25 Z M1226.75,471.75 L1226.75,523.45 L1200.60,549.60 L1256.07,549.60 L1265.97,539.69 L1265.97,510.97 L1294.69,510.97 L1304.60,501.07 L1304.60,445.60 L1278.45,471.75 L1226.75,471.75 Z M1226.75,301.58 L1278.45,301.58 L1304.60,327.73 L1304.60,272.27 L1294.69,262.36 L1265.97,262.36 L1265.97,233.64 L1256.07,223.73 L1200.60,223.73 L1226.75,249.89 L1226.75,301.58 Z M1226.75,125.09 L1226.75,176.78 L1200.60,202.93 L1256.07,202.93 L1265.97,193.03 L1265.97,164.31 L1294.69,164.31 L1304.60,154.40 L1304.60,98.93 L1278.45,125.09 L1226.75,125.09 Z M1211.00,1080.00 L1141.67,1010.67 L1072.33,1080.00 L1072.33,1080.00 L1211.00,1080.00 L1211.00,1080.00 Z M1211.00,386.67 L1141.67,317.33 L1072.33,386.67 L1141.67,456.00 L1211.00,386.67 Z M1211.00,40.00 L1211.00,40.00 L1072.33,40.00 L1072.33,40.00 L1141.67,109.33 L1211.00,40.00 Z M1141.67,802.67 L1211.00,733.33 L1141.67,664.00 L1072.33,733.33 L1141.67,802.67 Z M1056.58,301.58 L1056.58,249.89 L1082.73,223.73 L1027.27,223.73 L1017.36,233.64 L1017.36,262.36 L988.64,262.36 L978.73,272.27 L978.73,327.73 L1004.89,301.58 L1056.58,301.58 Z M1056.58,648.25 L1056.58,596.55 L1082.73,570.40 L1027.27,570.40 L1017.36,580.31 L1017.36,609.03 L988.64,609.03 L978.73,618.93 L978.73,674.40 L1004.89,648.25 L1056.58,648.25 Z M1056.58,818.42 L1004.89,818.42 L978.73,792.27 L978.73,847.73 L988.64,857.64 L1017.36,857.64 L1017.36,886.36 L1027.27,896.27 L1082.73,896.27 L1056.58,870.11 L1056.58,818.42 Z M1056.58,471.75 L1004.89,471.75 L978.73,445.60 L978.73,501.07 L988.64,510.97 L1017.36,510.97 L1017.36,539.69 L1027.27,549.60 L1082.73,549.60 L1056.58,523.45 L1056.58,471.75 Z M1056.58,994.91 L1056.58,943.22 L1082.73,917.07 L1027.27,917.07 L1017.36,926.97 L1017.36,955.69 L988.64,955.69 L978.73,965.60 L978.73,1021.07 L1004.89,994.91 L1056.58,994.91 Z M1056.58,125.09 L1004.89,125.09 L978.73,98.93 L978.73,154.40 L988.64,164.31 L1017.36,164.31 L1017.36,193.03 L1027.27,202.93 L1082.73,202.93 L1056.58,176.78 L1056.58,125.09 Z M957.93,1021.07 L957.93,965.60 L948.03,955.69 L919.31,955.69 L919.31,926.97 L909.40,917.07 L853.93,917.07 L880.09,943.22 L880.09,994.91 L931.78,994.91 L957.93,1021.07 Z M957.93,674.40 L957.93,618.93 L948.03,609.03 L919.31,609.03 L919.31,580.31 L909.40,570.40 L853.93,570.40 L880.09,596.55 L880.09,648.25 L931.78,648.25 L957.93,674.40 Z M957.93,327.73 L957.93,272.27 L948.03,262.36 L919.31,262.36 L919.31,233.64 L909.40,223.73 L853.93,223.73 L880.09,249.89 L880.09,301.58 L931.78,301.58 L957.93,327.73 Z M880.09,818.42 L880.09,870.11 L853.93,896.27 L909.40,896.27 L919.31,886.36 L919.31,857.64 L948.03,857.64 L957.93,847.73 L957.93,792.27 L931.78,818.42 L880.09,818.42 Z M880.09,471.75 L880.09,523.45 L853.93,549.60 L909.40,549.60 L919.31,539.69 L919.31,510.97 L948.03,510.97 L957.93,501.07 L957.93,445.60 L931.78,471.75 L880.09,471.75 Z M880.09,125.09 L880.09,176.78 L853.93,202.93 L909.40,202.93 L919.31,193.03 L919.31,164.31 L948.03,164.31 L957.93,154.40 L957.93,98.93 L931.78,125.09 L880.09,125.09 Z M864.33,733.33 L795.00,664.00 L725.67,733.33 L795.00,802.67 L864.33,733.33 Z M864.33,40.00 L864.33,40.00 L725.67,40.00 L725.67,40.00 L795.00,109.33 L864.33,40.00 Z M795.00,456.00 L864.33,386.67 L795.00,317.33 L725.67,386.67 L795.00,456.00 Z M725.67,1080.00 L864.33,1080.00 L864.33,1080.00 L795.00,1010.67 L725.67,1080.00 L725.67,1080.00 Z M709.91,301.58 L709.91,249.89 L736.07,223.73 L680.60,223.73 L670.69,233.64 L670.69,262.36 L641.97,262.36 L632.07,272.27 L632.07,327.73 L658.22,301.58 L709.91,301.58 Z M709.91,125.09 L658.22,125.09 L632.07,98.93 L632.07,154.40 L641.97,164.31 L670.69,164.31 L670.69,193.03 L680.60,202.93 L736.07,202.93 L709.91,176.78 L709.91,125.09 Z M709.91,471.75 L658.22,471.75 L632.07,445.60 L632.07,501.07 L641.97,510.97 L670.69,510.97 L670.69,539.69 L680.60,549.60 L736.07,549.60 L709.91,523.45 L709.91,471.75 Z M709.91,648.25 L709.91,596.55 L736.07,570.40 L680.60,570.40 L670.69,580.31 L670.69,609.03 L641.97,609.03 L632.07,618.93 L632.07,674.40 L658.22,648.25 L709.91,648.25 Z M709.91,818.42 L658.22,818.42 L632.07,792.27 L632.07,847.73 L641.97,857.64 L670.69,857.64 L670.69,886.36 L680.60,896.27 L736.07,896.27 L709.91,870.11 L709.91,818.42 Z M709.91,994.91 L709.91,943.22 L736.07,917.07 L680.60,917.07 L670.69,926.97 L670.69,955.69 L641.97,955.69 L632.07,965.60 L632.07,1021.07 L658.22,994.91 L709.91,994.91 Z M533.42,301.58 L585.11,301.58 L611.27,327.73 L611.27,272.27 L601.36,262.36 L572.64,262.36 L572.64,233.64 L562.73,223.73 L507.27,223.73 L533.42,249.89 L533.42,301.58 Z M533.42,125.09 L533.42,176.78 L507.27,202.93 L562.73,202.93 L572.64,193.03 L572.64,164.31 L601.36,164.31 L611.27,154.40 L611.27,98.93 L585.11,125.09 L533.42,125.09 Z M533.42,471.75 L533.42,523.45 L507.27,549.60 L562.73,549.60 L572.64,539.69 L572.64,510.97 L601.36,510.97 L611.27,501.07 L611.27,445.60 L585.11,471.75 L533.42,471.75 Z M533.42,648.25 L585.11,648.25 L611.27,674.40 L611.27,618.93 L601.36,609.03 L572.64,609.03 L572.64,580.31 L562.73,570.40 L507.27,570.40 L533.42,596.55 L533.42,648.25 Z M533.42,818.42 L533.42,870.11 L507.27,896.27 L562.73,896.27 L572.64,886.36 L572.64,857.64 L601.36,857.64 L611.27,847.73 L611.27,792.27 L585.11,818.42 L533.42,818.42 Z M611.27,1021.07 L611.27,965.60 L601.36,955.69 L572.64,955.69 L572.64,926.97 L562.73,917.07 L507.27,917.07 L533.42,943.22 L533.42,994.91 L585.11,994.91 L611.27,1021.07 Z M517.67,1080.00 L448.33,1010.67 L379.00,1080.00 L379.00,1080.00 L517.67,1080.00 L517.67,1080.00 Z M517.67,386.67 L448.33,317.33 L379.00,386.67 L448.33,456.00 L517.67,386.67 Z M517.67,40.00 L517.67,40.00 L379.00,40.00 L379.00,40.00 L448.33,109.33 L517.67,40.00 Z M448.33,802.67 L517.67,733.33 L448.33,664.00 L379.00,733.33 L448.33,802.67 Z M363.25,125.09 L311.55,125.09 L285.40,98.93 L285.40,154.40 L295.31,164.31 L324.03,164.31 L324.03,193.03 L333.93,202.93 L389.40,202.93 L363.25,176.78 L363.25,125.09 Z M363.25,301.58 L363.25,249.89 L389.40,223.73 L333.93,223.73 L324.03,233.64 L324.03,262.36 L295.31,262.36 L285.40,272.27 L285.40,327.73 L311.55,301.58 L363.25,301.58 Z M363.25,471.75 L311.55,471.75 L285.40,445.60 L285.40,501.07 L295.31,510.97 L324.03,510.97 L324.03,539.69 L333.93,549.60 L389.40,549.60 L363.25,523.45 L363.25,471.75 Z M363.25,648.25 L363.25,596.55 L389.40,570.40 L333.93,570.40 L324.03,580.31 L324.03,609.03 L295.31,609.03 L285.40,618.93 L285.40,674.40 L311.55,648.25 L363.25,648.25 Z M363.25,818.42 L311.55,818.42 L285.40,792.27 L285.40,847.73 L295.31,857.64 L324.03,857.64 L324.03,886.36 L333.93,896.27 L389.40,896.27 L363.25,870.11 L363.25,818.42 Z M363.25,994.91 L363.25,943.22 L389.40,917.07 L333.93,917.07 L324.03,926.97 L324.03,955.69 L295.31,955.69 L285.40,965.60 L285.40,1021.07 L311.55,994.91 L363.25,994.91 Z M264.60,327.73 L264.60,272.27 L254.69,262.36 L225.97,262.36 L225.97,233.64 L216.07,223.73 L160.60,223.73 L186.75,249.89 L186.75,301.58 L238.45,301.58 L264.60,327.73 Z M186.75,994.91 L238.45,994.91 L264.60,1021.07 L264.60,965.60 L254.69,955.69 L225.97,955.69 L225.97,926.97 L216.07,917.07 L160.60,917.07 L186.75,943.22 L186.75,994.91 Z M186.75,818.42 L186.75,870.11 L160.60,896.27 L216.07,896.27 L225.97,886.36 L225.97,857.64 L254.69,857.64 L264.60,847.73 L264.60,792.27 L238.45,818.42 L186.75,818.42 Z M186.75,648.25 L238.45,648.25 L264.60,674.40 L264.60,618.93 L254.69,609.03 L225.97,609.03 L225.97,580.31 L216.07,570.40 L160.60,570.40 L186.75,596.55 L186.75,648.25 Z M186.75,471.75 L186.75,523.45 L160.60,549.60 L216.07,549.60 L225.97,539.69 L225.97,510.97 L254.69,510.97 L264.60,501.07 L264.60,445.60 L238.45,471.75 L186.75,471.75 Z M186.75,125.09 L186.75,176.78 L160.60,202.93 L216.07,202.93 L225.97,193.03 L225.97,164.31 L254.69,164.31 L264.60,154.40 L264.60,98.93 L238.45,125.09 L186.75,125.09 Z M171.00,1080.00 L101.67,1010.67 L40.00,1072.33 L40.00,1080.00 L171.00,1080.00 L171.00,1080.00 Z M171.00,733.33 L101.67,664.00 L40.00,725.67 L40.00,741.00 L101.67,802.67 L171.00,733.33 Z M171.00,386.67 L101.67,317.33 L40.00,379.00 L40.00,394.33 L101.67,456.00 L171.00,386.67 Z M101.67,109.33 L171.00,40.00 L171.00,40.00 L40.00,40.00 L40.00,47.67 L101.67,109.33 Z M42.73,223.73 L40.00,223.73 L40.00,226.47 L42.73,223.73 Z M42.73,202.93 L40.00,200.20 L40.00,202.93 L42.73,202.93 Z M42.73,549.60 L40.00,546.87 L40.00,549.60 L42.73,549.60 Z M42.73,570.40 L40.00,570.40 L40.00,573.13 L42.73,570.40 Z M42.73,917.07 L40.00,917.07 L40.00,919.80 L42.73,917.07 Z M42.73,896.27 L40.00,893.53 L40.00,896.27 L42.73,896.27 Z"/>
</svg>
